<svg data-v-423bf9ae="" xmlns="http://www.w3.org/2000/svg" viewBox="0 0 802.9640203757522 771" class="iconAbove"><!----><!----><!----><g data-v-423bf9ae="" id="7a7cc312-b20e-4121-9197-59e172b1e432" fill="black" transform="matrix(6.55021858215332,0,0,6.55021858215332,280.75848388671875,685.39794921875)"><path d="M2.51 12.77L2.51 12.77Q2.38 12.77 2.32 12.68L2.32 12.68L2.32 12.68Q2.25 12.59 2.25 12.46L2.25 12.46L2.25 12.46Q2.27 12.25 2.34 12.21L2.34 12.21L2.34 12.21Q2.41 12.17 2.60 12.17L2.60 12.17L2.60 12.17Q3.01 12.17 3.21 12.02L3.21 12.02L3.21 12.02Q3.40 11.87 3.45 11.66L3.45 11.66L3.45 11.66Q3.50 11.44 3.51 11.09L3.51 11.09L3.51 4.41L2.55 4.41L2.55 4.41Q2.07 4.42 1.81 4.61L1.81 4.61L1.81 4.61Q1.55 4.80 1.42 5.17L1.42 5.17L1.42 5.17Q1.29 5.54 1.19 6.23L1.19 6.23L1.19 6.23Q1.18 6.34 1.02 6.41L1.02 6.41L1.02 6.41Q0.87 6.48 0.70 6.48L0.70 6.48L0.70 6.48Q0.57 6.48 0.47 6.41L0.47 6.41L0.47 6.41Q0.36 6.33 0.36 6.20L0.36 6.20L0.41 4.23L0.41 4.23Q0.41 3.89 0.78 3.89L0.78 3.89L7.63 3.89L7.63 3.89Q7.99 3.89 7.99 4.23L7.99 4.23L8.05 6.20L8.05 6.20Q8.05 6.33 7.94 6.41L7.94 6.41L7.94 6.41Q7.83 6.48 7.70 6.48L7.70 6.48L7.70 6.48Q7.53 6.48 7.38 6.41L7.38 6.41L7.38 6.41Q7.24 6.34 7.22 6.23L7.22 6.23L7.22 6.23Q7.11 5.53 6.99 5.17L6.99 5.17L6.99 5.17Q6.86 4.80 6.59 4.61L6.59 4.61L6.59 4.61Q6.33 4.42 5.85 4.41L5.85 4.41L4.90 4.41L4.90 11.09L4.90 11.09Q4.91 11.44 4.96 11.66L4.96 11.66L4.96 11.66Q5.01 11.87 5.21 12.02L5.21 12.02L5.21 12.02Q5.40 12.17 5.81 12.17L5.81 12.17L5.89 12.17L5.89 12.17Q6.02 12.17 6.08 12.22L6.08 12.22L6.08 12.22Q6.15 12.26 6.16 12.46L6.16 12.46L6.16 12.46Q6.16 12.59 6.10 12.68L6.10 12.68L6.10 12.68Q6.03 12.77 5.91 12.77L5.91 12.77L5.91 12.77Q5.01 12.73 4.26 12.73L4.26 12.73L4.26 12.73Q3.42 12.73 2.51 12.77L2.51 12.77ZM13.43 13.01L13.43 13.01Q12.35 13.01 11.59 12.63L11.59 12.63L11.59 12.63Q10.82 12.25 10.43 11.63L10.43 11.63L10.43 11.63Q10.04 11.02 10.04 10.30L10.04 10.30L10.04 5.53L10.04 5.53Q10.02 5.18 9.97 4.96L9.97 4.96L9.97 4.96Q9.93 4.75 9.73 4.60L9.73 4.60L9.73 4.60Q9.53 4.45 9.13 4.45L9.13 4.45L9.04 4.45L9.04 4.45Q8.90 4.45 8.85 4.40L8.85 4.40L8.85 4.40Q8.79 4.35 8.78 4.16L8.78 4.16L8.78 4.16Q8.78 4.03 8.84 3.94L8.84 3.94L8.84 3.94Q8.90 3.85 9.03 3.85L9.03 3.85L9.03 3.85Q9.93 3.89 10.68 3.89L10.68 3.89L10.68 3.89Q11.54 3.89 12.43 3.85L12.43 3.85L12.43 3.85Q12.56 3.85 12.62 3.94L12.62 3.94L12.62 3.94Q12.68 4.03 12.68 4.16L12.68 4.16L12.68 4.16Q12.67 4.35 12.61 4.40L12.61 4.40L12.61 4.40Q12.54 4.45 12.40 4.45L12.40 4.45L12.40 4.45Q11.96 4.45 11.75 4.59L11.75 4.59L11.75 4.59Q11.54 4.73 11.49 4.94L11.49 4.94L11.49 4.94Q11.44 5.15 11.42 5.53L11.42 5.53L11.42 9.90L11.42 9.90Q11.42 10.86 11.88 11.52L11.88 11.52L11.88 11.52Q12.33 12.18 13.65 12.18L13.65 12.18L13.65 12.18Q14.94 12.18 15.48 11.59L15.48 11.59L15.48 11.59Q16.02 10.99 16.02 10.09L16.02 10.09L16.02 6.41L16.02 6.41Q16.02 5.46 15.95 5.07L15.95 5.07L15.95 5.07Q15.88 4.68 15.67 4.56L15.67 4.56L15.67 4.56Q15.46 4.45 14.94 4.45L14.94 4.45L14.85 4.45L14.85 4.45Q14.73 4.45 14.67 4.40L14.67 4.40L14.67 4.40Q14.60 4.35 14.59 4.16L14.59 4.16L14.59 4.16Q14.59 4.03 14.65 3.94L14.65 3.94L14.65 3.94Q14.71 3.85 14.84 3.85L14.84 3.85L14.84 3.85Q15.75 3.89 16.41 3.89L16.41 3.89L16.41 3.89Q17.08 3.89 17.98 3.85L17.98 3.85L17.98 3.85Q18.10 3.85 18.16 3.94L18.16 3.94L18.16 3.94Q18.23 4.03 18.23 4.16L18.23 4.16L18.23 4.16Q18.21 4.35 18.15 4.40L18.15 4.40L18.15 4.40Q18.09 4.45 17.95 4.45L17.95 4.45L17.95 4.45Q17.39 4.45 17.17 4.55L17.17 4.55L17.17 4.55Q16.95 4.65 16.88 5.02L16.88 5.02L16.88 5.02Q16.80 5.39 16.80 6.33L16.80 6.33L16.80 10.23L16.80 10.23Q16.80 11.17 16.28 11.80L16.28 11.80L16.28 11.80Q15.76 12.42 14.99 12.71L14.99 12.71L14.99 12.71Q14.21 13.01 13.43 13.01L13.43 13.01ZM19.32 12.77L19.32 12.77Q19.21 12.77 19.14 12.68L19.14 12.68L19.14 12.68Q19.08 12.59 19.08 12.46L19.08 12.46L19.08 12.46Q19.10 12.25 19.17 12.21L19.17 12.21L19.17 12.21Q19.24 12.17 19.43 12.17L19.43 12.17L19.43 12.17Q19.84 12.17 20.03 12.02L20.03 12.02L20.03 12.02Q20.23 11.87 20.28 11.66L20.28 11.66L20.28 11.66Q20.33 11.44 20.34 11.09L20.34 11.09L20.34 5.53L20.34 5.53Q20.33 5.18 20.28 4.96L20.28 4.96L20.28 4.96Q20.23 4.75 20.03 4.60L20.03 4.60L20.03 4.60Q19.84 4.45 19.43 4.45L19.43 4.45L19.35 4.45L19.35 4.45Q19.21 4.45 19.15 4.40L19.15 4.40L19.15 4.40Q19.10 4.35 19.08 4.16L19.08 4.16L19.08 4.16Q19.08 4.03 19.14 3.94L19.14 3.94L19.14 3.94Q19.21 3.85 19.32 3.85L19.32 3.85L19.32 3.85Q20.24 3.89 20.99 3.89L20.99 3.89L23.17 3.89L23.17 3.89Q24.51 3.89 25.61 4.43L25.61 4.43L25.61 4.43Q26.71 4.97 27.35 5.98L27.35 5.98L27.35 5.98Q27.99 6.99 27.99 8.36L27.99 8.36L27.99 8.36Q27.99 9.79 27.27 10.77L27.27 10.77L27.27 10.77Q26.54 11.76 25.39 12.24L25.39 12.24L25.39 12.24Q24.23 12.73 22.92 12.73L22.92 12.73L20.99 12.73L20.99 12.73Q20.24 12.73 19.32 12.77L19.32 12.77ZM23.13 12.21L23.13 12.21Q24.77 12.21 25.53 11.19L25.53 11.19L25.53 11.19Q26.29 10.18 26.29 8.36L26.29 8.36L26.29 8.36Q26.29 7.21 25.88 6.31L25.88 6.31L25.88 6.31Q25.47 5.40 24.68 4.90L24.68 4.90L24.68 4.90Q23.90 4.40 22.82 4.40L22.82 4.40L21.73 4.41L21.73 11.26L21.73 11.26Q21.73 11.80 22.06 12.01L22.06 12.01L22.06 12.01Q22.39 12.21 23.13 12.21L23.13 12.21ZM29.51 12.77L29.51 12.77Q29.40 12.77 29.34 12.68L29.34 12.68L29.34 12.68Q29.27 12.59 29.27 12.46L29.27 12.46L29.27 12.46Q29.29 12.25 29.36 12.21L29.36 12.21L29.36 12.21Q29.43 12.17 29.62 12.17L29.62 12.17L29.62 12.17Q30.03 12.17 30.23 12.02L30.23 12.02L30.23 12.02Q30.42 11.87 30.47 11.66L30.47 11.66L30.47 11.66Q30.52 11.44 30.53 11.09L30.53 11.09L30.53 5.53L30.53 5.53Q30.52 5.18 30.47 4.96L30.47 4.96L30.47 4.96Q30.42 4.75 30.23 4.60L30.23 4.60L30.23 4.60Q30.03 4.45 29.62 4.45L29.62 4.45L29.54 4.45L29.54 4.45Q29.40 4.45 29.34 4.40L29.34 4.40L29.34 4.40Q29.29 4.35 29.27 4.16L29.27 4.16L29.27 4.16Q29.27 4.03 29.34 3.94L29.34 3.94L29.34 3.94Q29.40 3.85 29.51 3.85L29.51 3.85L29.51 3.85Q30.44 3.89 31.18 3.89L31.18 3.89L35.57 3.89L35.57 3.89Q35.94 3.89 35.94 4.23L35.94 4.23L35.98 6.19L35.98 6.19Q35.98 6.31 35.85 6.39L35.85 6.39L35.85 6.39Q35.73 6.47 35.60 6.47L35.60 6.47L35.60 6.47Q35.43 6.47 35.31 6.41L35.31 6.41L35.31 6.41Q35.18 6.34 35.17 6.22L35.17 6.22L35.17 6.22Q35.06 5.53 34.92 5.17L34.92 5.17L34.92 5.17Q34.79 4.82 34.53 4.64L34.53 4.64L34.53 4.64Q34.27 4.47 33.80 4.45L33.80 4.45L31.92 4.45L31.92 8.01L34.45 8.01L34.45 8.01Q34.55 8.02 34.61 8.11L34.61 8.11L34.61 8.11Q34.66 8.20 34.66 8.33L34.66 8.33L34.66 8.33Q34.66 8.44 34.61 8.53L34.61 8.53L34.61 8.53Q34.55 8.61 34.45 8.61L34.45 8.61L31.92 8.61L31.92 11.26L31.92 11.26Q31.95 11.55 31.99 11.73L31.99 11.73L31.99 11.73Q32.03 11.90 32.24 12.04L32.24 12.04L32.24 12.04Q32.45 12.18 32.90 12.17L32.90 12.17L34.19 12.17L34.19 12.17Q34.68 12.15 34.93 12.01L34.93 12.01L34.93 12.01Q35.18 11.86 35.33 11.55L35.33 11.55L35.33 11.55Q35.48 11.24 35.69 10.54L35.69 10.54L35.69 10.54Q35.78 10.29 36.16 10.35L36.16 10.35L36.16 10.35Q36.30 10.37 36.41 10.46L36.41 10.46L36.41 10.46Q36.51 10.54 36.50 10.67L36.50 10.67L36.22 12.43L36.22 12.43Q36.18 12.61 36.09 12.67L36.09 12.67L36.09 12.67Q36.01 12.73 35.81 12.73L35.81 12.73L31.19 12.73L31.19 12.73Q30.44 12.73 29.51 12.77L29.51 12.77Z"></path></g><!----><g data-v-423bf9ae="" id="d69c8c5f-3bec-4300-aadf-1acf34358a6a" transform="matrix(2.784114360809326,0,0,2.784114360809326,0.5174524784088135,0.19235102832317352)" stroke="none" fill="black"><path d="M285.815 98.711c-1.273-1.752-4.64.489-5.656-1.446 1.684-18.533-2.897-16.416-4.792-23.059-19.338-17.872-40.782-31.118-64.315-39.741 3.09-27.984-21.735-41.972-50.702-30.378-3.208 4.832-3.983 12.571-.677 23.834-4.713 1.668-9.432 3.332-14.154 5-36.982-26.435-86.812 4.669-71.556 46.527-18.958 4.324-36.735 6.268-50.342-.292C10.882 73.372-.233 69.828.004 81.965c6.52 15.285 11.283 31.183 9.688 49.244 4.412 6.229 10.917 7.838 19.52 4.817 15.152-11.458 32.575-20.475 58.121-20.776.8 7.003 1.584 14.005 2.384 21.013 2.537 3.505 5.656 6.199 9.353 8.095 13.005-.05 25.566-2.902 37.436-9.891 2.078 1.796 4.156 3.593 6.238 5.39 2.547 26.651 45.402 30.758 54.76 7.601 32.648-7.778 65.801-14.718 90.448-35.721 1.032-6.773.317-11.116-2.137-13.026zm-48.096-18.483c-4.64 0-8.405-3.055-8.405-6.821 0-3.766 3.766-6.821 8.405-6.821 4.63 0 8.391 3.055 8.391 6.821-.001 3.765-3.761 6.821-8.391 6.821zM269.276 227.808c-4.797-5.331-11.361-12.615-23.839-12.615-13.113 0-19.855 6.86-25.27 12.378-4.64 4.719-7.699 7.838-14.451 7.838-6.707 0-9.758-3.119-14.372-7.838-5.404-5.518-12.127-12.378-25.211-12.378-12.931 0-19.545 6.899-24.865 12.438-4.896 5.113-7.744 7.778-13.918 7.778-6.875 0-9.979-3.13-14.684-7.867-5.458-5.509-12.255-12.349-25.442-12.349-13.227 0-20.058 6.83-25.536 12.328-4.738 4.748-7.868 7.888-14.807 7.888-6.723 0-9.782-3.119-14.407-7.838-5.404-5.518-12.136-12.378-25.23-12.378v15.162c6.728 0 9.777 3.109 14.407 7.827 5.409 5.518 12.136 12.388 25.23 12.388 13.227 0 20.058-6.84 25.536-12.338 4.738-4.748 7.862-7.877 14.807-7.877 6.875 0 9.979 3.129 14.683 7.867 5.458 5.498 12.255 12.348 25.443 12.348 12.931 0 19.545-6.899 24.865-12.447 4.896-5.103 7.743-7.768 13.918-7.768 6.707 0 9.758 3.109 14.372 7.827 5.404 5.518 12.127 12.388 25.211 12.388 13.108 0 19.851-6.87 25.27-12.378 4.64-4.718 7.7-7.837 14.451-7.837 5.474 0 8.075 2.605 12.571 7.601 4.787 5.32 11.356 12.614 23.834 12.614v-15.161c-5.468-.001-8.07-2.607-12.566-7.601zM269.276 190.741c-4.797-5.32-11.361-12.615-23.839-12.615-13.113 0-19.855 6.86-25.27 12.379-4.64 4.718-7.699 7.837-14.451 7.837-6.707 0-9.758-3.109-14.372-7.827-5.404-5.519-12.127-12.389-25.211-12.389-12.931 0-19.545 6.9-24.865 12.447-4.896 5.104-7.744 7.769-13.918 7.769-6.875 0-9.979-3.129-14.684-7.867-5.458-5.498-12.255-12.349-25.442-12.349-13.227 0-20.058 6.841-25.536 12.339-4.738 4.748-7.868 7.877-14.807 7.877-6.723 0-9.782-3.109-14.407-7.827-5.404-5.519-12.136-12.389-25.23-12.389v15.162c6.728 0 9.777 3.119 14.407 7.838 5.409 5.508 12.136 12.378 25.23 12.378 13.227 0 20.058-6.841 25.536-12.339 4.738-4.738 7.862-7.877 14.807-7.877 6.875 0 9.979 3.129 14.683 7.867 5.458 5.498 12.255 12.349 25.443 12.349 12.931 0 19.545-6.899 24.865-12.438 4.896-5.113 7.743-7.778 13.918-7.778 6.707 0 9.758 3.119 14.372 7.838 5.404 5.508 12.127 12.378 25.211 12.378 13.108 0 19.851-6.86 25.27-12.378 4.64-4.719 7.7-7.838 14.451-7.838 5.474 0 8.075 2.605 12.571 7.601 4.787 5.331 11.356 12.615 23.834 12.615v-15.162c-5.468 0-8.07-2.606-12.566-7.601z"></path></g><!----></svg>